<svg width="512" height="512" viewBox="0 0 512 512" fill="currentColor" xmlns="http://www.w3.org/2000/svg">
<path d="M255.312 25.7501C256.111 25.7491 256.91 25.7481 257.732 25.7471C270.359 25.7578 282.616 26.3344 295 29.0001C295.682 29.1447 296.364 29.2892 297.067 29.4381C329.228 36.53 359.236 55.6721 379 82.0001C379.727 82.9618 380.454 83.9234 381.203 84.9142C400.13 111.054 407.602 139.738 409.668 171.565C409.883 174.877 410.116 178.188 410.352 181.499C411.25 194.27 412.07 207.046 412.88 219.823C413.384 227.781 413.9 235.739 414.42 243.697C414.808 249.656 415.18 255.615 415.54 261.576C415.772 265.348 416.017 269.119 416.265 272.89C416.378 274.654 416.486 276.419 416.588 278.184C417.425 295.607 417.425 295.607 426.375 310.063C438.715 322.868 443.405 337.796 443.312 355.25C443.307 356.359 443.301 357.468 443.295 358.61C443.028 376.599 437.517 390.772 425 404C422.503 406.376 419.944 408.213 417 410C416.098 410.574 415.195 411.147 414.266 411.738C402.985 418.163 390.678 419.943 378 422C377.029 422.159 377.029 422.159 376.039 422.32C355.444 425.673 334.803 428.305 314 430C312.745 430.105 311.49 430.209 310.197 430.317C272.324 433.337 233.853 433.335 196 430C195.281 429.937 194.563 429.874 193.823 429.809C175.336 428.159 156.964 425.846 138.625 423C137.843 422.881 137.06 422.761 136.254 422.638C114.948 419.353 95.114 414.81 80.6602 397.383C71.8342 384.715 68.4611 371.33 68.625 356C68.6134 354.915 68.6018 353.829 68.5898 352.711C68.6501 335.869 74.3072 322.513 85.9141 310.352C91.4156 304.15 93.9115 297.789 94.4417 289.618C94.5145 288.525 94.5873 287.432 94.6622 286.306C94.7381 285.112 94.8139 283.917 94.8921 282.686C95.0197 280.748 95.1473 278.81 95.275 276.871C95.4116 274.787 95.5464 272.703 95.6808 270.619C95.9627 266.252 96.251 261.885 96.5404 257.519C97.3627 245.101 98.1768 232.683 98.9834 220.264C99.4289 213.405 99.8801 206.547 100.337 199.689C100.578 196.071 100.816 192.453 101.047 188.835C101.882 175.761 102.732 162.707 104.479 149.716C104.592 148.875 104.705 148.033 104.821 147.166C110.015 111.374 130.137 77.7549 159 56.0001C159.963 55.2718 160.926 54.5435 161.918 53.7931C181.591 39.5558 203.905 30.2732 228 27.0001C228.683 26.9073 229.366 26.8145 230.07 26.7189C238.453 25.7245 246.882 25.7575 255.312 25.7501ZM221 62.0001C220.265 62.1988 219.53 62.3975 218.772 62.6022C202.674 67.1352 188.962 74.4133 176 85.0001C174.799 85.9708 174.799 85.9708 173.574 86.9611C150.565 106.433 138.959 134.628 136 164C135.292 172.567 134.779 181.149 134.244 189.728C133.973 194.073 133.692 198.418 133.409 202.763C132.606 215.105 131.811 227.449 131.037 239.793C130.608 246.637 130.168 253.481 129.716 260.323C129.479 263.927 129.247 267.531 129.029 271.136C127.524 295.894 125.46 315.553 108.48 334.715C102.613 341.398 101.491 347.267 101.562 355.875C101.533 357.145 101.533 357.145 101.502 358.442C101.508 366.188 103.898 371.877 108.188 378.25C115.952 385.842 125.194 387.403 135.562 389.063C137.069 389.315 138.575 389.568 140.082 389.821C177.635 396.045 215.437 399.228 253.5 399.25C254.576 399.251 255.652 399.251 256.76 399.252C297.813 399.212 338.482 395.326 378.938 388.438C380.056 388.252 381.175 388.067 382.328 387.876C392.095 386.111 399.828 383.048 406 375C411.742 366.141 411.454 353.907 409.34 343.863C407.52 338.72 404.838 335.534 400.863 331.891C387.856 318.693 385.088 300.565 383.994 282.952C383.867 281.022 383.739 279.092 383.611 277.163C383.476 275.109 383.344 273.056 383.213 271.003C382.938 266.69 382.653 262.378 382.366 258.067C381.655 247.352 380.956 236.638 380.261 225.922C379.721 217.597 379.177 209.271 378.622 200.947C378.384 197.373 378.149 193.799 377.923 190.224C375.445 151.187 369.629 115.056 339.188 87.3126C306.972 60.8204 261.566 51.0068 221 62.0001Z"/>
<path d="M226.347 452.58C227.057 452.572 227.767 452.563 228.498 452.554C230.83 452.531 233.161 452.53 235.492 452.531C237.124 452.524 238.755 452.516 240.386 452.508C243.801 452.495 247.215 452.493 250.63 452.499C254.99 452.505 259.349 452.474 263.709 452.434C267.077 452.408 270.445 452.405 273.813 452.409C275.42 452.407 277.027 452.398 278.633 452.38C295.031 452.217 295.031 452.217 301 458C304.631 462.494 304.502 466.535 304.352 472.121C303.717 477.317 301.212 479.879 297.5 483.313C293.152 486.248 289.309 486.132 284.124 486.161C283.098 486.169 283.098 486.169 282.053 486.176C279.798 486.191 277.544 486.198 275.289 486.203C273.717 486.209 272.146 486.215 270.574 486.22C267.28 486.231 263.987 486.237 260.693 486.24C256.481 486.246 252.269 486.27 248.057 486.298C244.811 486.317 241.565 486.322 238.319 486.324C236.766 486.327 235.214 486.335 233.661 486.348C231.486 486.365 229.311 486.363 227.135 486.356C225.899 486.36 224.664 486.364 223.39 486.368C218.992 485.891 215.606 484.5 212.356 481.465C207.616 475.266 207.125 470.773 208 463C211.251 454.956 218.083 452.635 226.347 452.58Z"/>
</svg>
