<svg width="512" height="512" viewBox="0 0 512 512" fill="currentColor" xmlns="http://www.w3.org/2000/svg">
<path d="M189.085 47.5959C190.704 47.5902 192.323 47.5833 193.942 47.5752C198.318 47.5573 202.694 47.5584 207.07 47.5641C210.733 47.5672 214.396 47.5611 218.059 47.5551C226.705 47.541 235.351 47.5426 243.998 47.554C252.896 47.5654 261.794 47.5514 270.692 47.5246C278.352 47.5024 286.012 47.4958 293.672 47.5016C298.238 47.505 302.803 47.5027 307.37 47.4854C311.666 47.4698 315.962 47.474 320.258 47.4927C321.827 47.4964 323.396 47.4933 324.966 47.4828C337.4 47.4058 348.785 48.9023 358 58C367.954 69.757 368.423 80.3224 368.187 95.0625C368.172 96.7077 368.159 98.3529 368.146 99.9981C368.114 103.999 368.062 107.999 368 112C369.222 111.987 369.222 111.987 370.47 111.973C378.192 111.893 385.914 111.832 393.637 111.793C397.607 111.772 401.576 111.744 405.545 111.698C409.383 111.654 413.221 111.631 417.06 111.62C418.516 111.613 419.973 111.599 421.429 111.577C432.86 111.413 443.022 112.733 452.152 120.176C459.594 127.523 464.027 136.159 464.369 146.652C464.382 148.811 464.378 150.971 464.361 153.13C464.363 154.326 464.366 155.522 464.368 156.754C464.373 160.052 464.363 163.349 464.348 166.647C464.335 170.211 464.34 173.775 464.342 177.339C464.343 183.508 464.334 189.676 464.317 195.844C464.293 204.761 464.285 213.679 464.281 222.597C464.275 237.067 464.255 251.537 464.226 266.008C464.199 280.06 464.178 294.113 464.165 308.166C464.164 309.033 464.163 309.899 464.162 310.793C464.158 315.142 464.155 319.49 464.151 323.839C464.12 359.893 464.067 395.946 464 432C465.131 431.971 465.131 431.971 466.285 431.941C467.275 431.925 468.265 431.91 469.285 431.895C470.757 431.865 470.757 431.865 472.258 431.835C477.399 432.144 480.009 434.902 483.312 438.562C486.262 442.822 486.518 446.956 486 452C483.997 457.675 480.386 461.307 475 464C472.634 464.1 470.297 464.139 467.93 464.134C466.82 464.138 466.82 464.138 465.688 464.141C463.182 464.148 460.677 464.148 458.172 464.147C456.368 464.15 454.563 464.154 452.759 464.158C447.782 464.168 442.804 464.172 437.826 464.175C432.465 464.179 427.105 464.188 421.744 464.197C408.788 464.217 395.832 464.227 382.876 464.236C376.78 464.24 370.684 464.245 364.588 464.251C344.333 464.268 324.078 464.282 303.822 464.289C298.563 464.291 293.304 464.293 288.045 464.295C286.738 464.296 285.431 464.296 284.084 464.297C262.897 464.305 241.71 464.33 220.524 464.363C198.789 464.396 177.054 464.414 155.32 464.417C143.109 464.419 130.899 464.428 118.689 464.453C108.293 464.475 97.8961 464.483 87.4996 464.474C82.1925 464.469 76.8857 464.471 71.5787 464.49C66.7229 464.508 61.8674 464.507 57.0115 464.491C55.2524 464.489 53.4932 464.493 51.7341 464.505C49.3467 464.52 46.9605 464.511 44.5731 464.495C43.8867 464.505 43.2003 464.515 42.4932 464.526C37.5692 464.455 34.8123 463.039 31 460C26.9164 455.475 25.6837 452.209 25.7851 446.055C26.3803 440.363 29.8503 436.631 34 433C37.1493 431.95 39.3881 431.899 42.6875 431.938C43.6813 431.947 44.6752 431.956 45.6992 431.965C46.8381 431.982 46.8381 431.982 48 432C47.9984 431.386 47.9969 430.772 47.9954 430.139C47.9058 393.731 47.8372 357.322 47.7957 320.913C47.7907 316.54 47.7855 312.167 47.7802 307.793C47.7792 306.923 47.7781 306.052 47.7771 305.155C47.7597 291.065 47.7281 276.975 47.6914 262.884C47.6539 248.422 47.6317 233.96 47.6236 219.499C47.6181 210.577 47.6008 201.656 47.5683 192.735C47.5471 186.615 47.5408 180.494 47.546 174.373C47.5485 170.844 47.5446 167.315 47.5231 163.786C47.5 159.953 47.508 156.121 47.5189 152.288C47.5073 151.181 47.4956 150.074 47.4836 148.933C47.5633 138.565 50.6971 129.537 58 122C68.824 112.817 78.7368 111.553 92.5351 111.707C94.0244 111.713 95.5137 111.717 97.003 111.72C100.894 111.731 104.785 111.761 108.677 111.794C112.659 111.825 116.641 111.838 120.623 111.854C128.415 111.886 136.208 111.937 144 112C143.969 110.496 143.969 110.496 143.936 108.962C143.863 105.191 143.818 101.421 143.78 97.6506C143.76 96.0281 143.733 94.4057 143.698 92.7835C143.441 80.5402 144.081 69.7776 152.176 59.8477C162.948 48.9368 174.487 47.5493 189.085 47.5959ZM177 83C175.939 86.1833 175.876 88.4282 175.877 91.7728C175.875 92.984 175.873 94.1952 175.871 95.4431C175.874 96.7942 175.877 98.1452 175.88 99.4963C175.879 100.926 175.878 102.356 175.877 103.786C175.875 107.724 175.879 111.662 175.884 115.6C175.888 119.843 175.887 124.087 175.886 128.33C175.885 135.685 175.889 143.04 175.894 150.395C175.902 161.029 175.905 171.663 175.906 182.297C175.908 199.549 175.915 216.801 175.925 234.053C175.934 250.815 175.941 267.576 175.945 284.338C175.945 285.37 175.946 286.403 175.946 287.467C175.947 292.648 175.948 297.828 175.95 303.009C175.96 346.006 175.978 389.003 176 432C186.56 432 197.12 432 208 432C208.026 427.377 208.052 422.755 208.078 417.992C208.103 415.057 208.13 412.122 208.16 409.188C208.208 404.533 208.252 399.878 208.271 395.224C208.286 391.469 208.321 387.715 208.368 383.961C208.383 382.531 208.391 381.102 208.392 379.672C208.394 377.664 208.424 375.656 208.454 373.648C208.467 371.936 208.467 371.936 208.481 370.189C209.133 366.181 210.385 364.096 213 361C217.471 358.036 221.06 357.618 226.363 357.596C227.43 357.586 227.43 357.586 228.519 357.575C230.855 357.557 233.191 357.561 235.527 357.566C237.161 357.562 238.795 357.557 240.429 357.551C243.847 357.542 247.266 357.544 250.684 357.554C255.053 357.565 259.422 357.545 263.791 357.516C267.163 357.498 270.535 357.498 273.908 357.504C275.518 357.504 277.129 357.498 278.739 357.485C280.996 357.47 283.251 357.481 285.508 357.498C286.788 357.498 288.069 357.499 289.389 357.499C294.747 358.242 298.406 360.047 301.91 364.342C303.23 367.561 303.399 370.055 303.432 373.534C303.452 374.835 303.472 376.136 303.492 377.477C303.499 378.887 303.506 380.297 303.512 381.707C303.529 383.157 303.547 384.607 303.566 386.058C303.613 389.863 303.643 393.669 303.67 397.475C303.705 402.047 303.762 406.619 303.815 411.192C303.893 418.128 303.944 425.063 304 432C314.56 432 325.12 432 336 432C336.068 388.007 336.121 344.014 336.153 300.02C336.157 294.829 336.161 289.638 336.165 284.448C336.166 283.414 336.166 282.381 336.167 281.316C336.18 264.571 336.204 247.826 336.231 231.081C336.259 213.906 336.276 196.731 336.282 179.556C336.286 168.953 336.299 158.351 336.324 147.749C336.34 140.483 336.344 133.218 336.34 125.953C336.339 121.758 336.342 117.563 336.358 113.368C336.372 109.529 336.373 105.691 336.363 101.852C336.361 100.462 336.365 99.0712 336.375 97.6808C336.387 95.7935 336.378 93.9061 336.369 92.0189C336.37 90.9697 336.371 89.9205 336.373 88.8396C335.941 85.5489 334.951 83.6626 333 81C330.28 79.64 328.138 79.8678 325.092 79.8596C323.203 79.851 323.203 79.851 321.276 79.8423C319.873 79.841 318.47 79.8399 317.067 79.8389C315.595 79.8342 314.124 79.8292 312.652 79.8238C308.648 79.8107 304.644 79.8043 300.64 79.7998C298.139 79.7969 295.639 79.7928 293.139 79.7883C285.32 79.7746 277.501 79.765 269.682 79.7611C260.649 79.7566 251.616 79.7391 242.583 79.7101C235.605 79.6885 228.627 79.6784 221.65 79.6771C217.48 79.676 213.311 79.6701 209.141 79.6522C205.219 79.6358 201.298 79.6336 197.376 79.6424C195.936 79.6432 194.496 79.6388 193.056 79.6289C191.092 79.6163 189.127 79.6239 187.162 79.6325C185.512 79.6303 185.512 79.6303 183.829 79.6281C180.63 80.0486 179.275 80.7427 177 83ZM81 147C80.0296 149.911 79.8756 151.746 79.8769 154.773C79.8749 155.762 79.8729 156.75 79.8709 157.768C79.8738 158.857 79.8767 159.945 79.8797 161.067C79.8789 162.221 79.878 163.375 79.8771 164.564C79.8758 167.772 79.8789 170.981 79.8839 174.189C79.8882 177.647 79.8868 181.105 79.886 184.563C79.8855 190.556 79.8886 196.549 79.8942 202.542C79.9024 211.207 79.905 219.872 79.9062 228.537C79.9084 242.595 79.9151 256.652 79.9245 270.71C79.9337 284.367 79.9408 298.024 79.945 311.681C79.9453 312.523 79.9456 313.364 79.9458 314.232C79.9471 318.453 79.9484 322.675 79.9496 326.897C79.96 361.931 79.9784 396.966 80 432C101.12 432 122.24 432 144 432C144 421.44 144 410.88 144 400C141.687 399.974 139.375 399.948 136.992 399.922C134.738 399.883 132.484 399.838 130.23 399.792C128.671 399.764 127.111 399.743 125.552 399.729C123.302 399.707 121.054 399.661 118.805 399.609C118.114 399.608 117.423 399.607 116.711 399.606C111.719 399.457 108.856 398.118 105 395C101.453 390.034 101.16 384.901 102 379C103.267 375.35 105.059 372.722 108.163 370.341C111.704 368.667 114.866 368.524 118.707 368.488C119.432 368.47 120.158 368.452 120.905 368.434C123.208 368.38 125.51 368.346 127.812 368.312C129.38 368.279 130.947 368.245 132.514 368.209C136.342 368.122 140.17 368.062 144 368C144 357.44 144 346.88 144 336C141.687 335.974 139.375 335.948 136.992 335.922C134.738 335.883 132.484 335.838 130.23 335.792C128.671 335.764 127.111 335.743 125.552 335.729C123.302 335.707 121.054 335.661 118.805 335.609C118.114 335.608 117.423 335.607 116.711 335.606C111.719 335.457 108.856 334.118 105 331C101.453 326.034 101.16 320.901 102 315C103.267 311.35 105.059 308.722 108.163 306.341C111.704 304.667 114.866 304.524 118.707 304.488C119.432 304.47 120.158 304.452 120.905 304.434C123.208 304.38 125.51 304.346 127.812 304.312C129.38 304.279 130.947 304.245 132.514 304.209C136.342 304.122 140.17 304.062 144 304C144 293.44 144 282.88 144 272C141.687 271.974 139.375 271.948 136.992 271.922C134.738 271.883 132.484 271.838 130.23 271.792C128.671 271.764 127.111 271.743 125.552 271.729C123.302 271.707 121.054 271.661 118.805 271.609C118.114 271.608 117.423 271.607 116.711 271.606C111.719 271.457 108.856 270.118 105 267C101.453 262.034 101.16 256.901 102 251C103.267 247.35 105.059 244.722 108.163 242.341C111.704 240.667 114.866 240.524 118.707 240.488C119.432 240.47 120.158 240.452 120.905 240.434C123.208 240.38 125.51 240.346 127.812 240.312C129.38 240.279 130.947 240.245 132.514 240.209C136.342 240.122 140.17 240.062 144 240C144 229.44 144 218.88 144 208C141.687 207.974 139.375 207.948 136.992 207.922C134.738 207.883 132.484 207.838 130.23 207.792C128.671 207.764 127.111 207.743 125.552 207.729C123.302 207.707 121.054 207.661 118.805 207.609C117.768 207.608 117.768 207.608 116.711 207.606C111.719 207.457 108.856 206.118 105 203C101.453 198.034 101.16 192.901 102 187C103.267 183.35 105.059 180.722 108.163 178.341C111.704 176.667 114.866 176.524 118.707 176.488C119.432 176.47 120.158 176.452 120.905 176.434C123.208 176.38 125.51 176.346 127.812 176.312C129.38 176.279 130.947 176.245 132.514 176.209C136.342 176.122 140.17 176.062 144 176C144 165.44 144 154.88 144 144C136.383 143.937 128.767 143.877 121.15 143.845C117.603 143.829 114.056 143.808 110.509 143.774C106.438 143.735 102.368 143.72 98.2968 143.707C97.0269 143.692 95.757 143.676 94.4486 143.66C93.2677 143.66 92.0868 143.66 90.8701 143.659C89.3112 143.649 89.3112 143.649 87.7209 143.639C84.5843 144.055 83.2419 144.797 81 147ZM368 144C368 154.56 368 165.12 368 176C370.313 176.026 372.625 176.052 375.008 176.078C377.262 176.117 379.516 176.162 381.77 176.208C383.329 176.236 384.889 176.257 386.448 176.271C388.698 176.293 390.946 176.339 393.195 176.391C394.232 176.392 394.232 176.392 395.289 176.394C400.281 176.543 403.144 177.882 407 181C410.547 185.966 410.84 191.099 410 197C408.733 200.65 406.941 203.278 403.837 205.659C400.296 207.333 397.134 207.476 393.293 207.512C392.568 207.53 391.842 207.548 391.095 207.566C388.792 207.62 386.49 207.654 384.187 207.688C382.62 207.721 381.053 207.755 379.486 207.791C375.657 207.878 371.83 207.938 368 208C368 218.56 368 229.12 368 240C370.313 240.026 372.625 240.052 375.008 240.078C377.262 240.117 379.516 240.162 381.77 240.208C383.329 240.236 384.889 240.257 386.448 240.271C388.698 240.293 390.946 240.339 393.195 240.391C393.886 240.392 394.577 240.393 395.289 240.394C400.281 240.543 403.144 241.882 407 245C410.547 249.966 410.84 255.099 410 261C408.733 264.65 406.941 267.278 403.837 269.659C400.296 271.333 397.134 271.476 393.293 271.512C392.568 271.53 391.842 271.548 391.095 271.566C388.792 271.62 386.49 271.654 384.187 271.688C382.62 271.721 381.053 271.755 379.486 271.791C375.657 271.878 371.83 271.938 368 272C368 282.56 368 293.12 368 304C370.313 304.026 372.625 304.052 375.008 304.078C377.262 304.117 379.516 304.162 381.77 304.208C383.329 304.236 384.889 304.257 386.448 304.271C388.698 304.293 390.946 304.339 393.195 304.391C393.886 304.392 394.577 304.393 395.289 304.394C400.281 304.543 403.144 305.882 407 309C410.547 313.966 410.84 319.099 410 325C408.733 328.65 406.941 331.278 403.837 333.659C400.296 335.333 397.134 335.476 393.293 335.512C392.568 335.53 391.842 335.548 391.095 335.566C388.792 335.62 386.49 335.654 384.187 335.688C382.62 335.721 381.053 335.755 379.486 335.791C375.657 335.878 371.83 335.938 368 336C368 346.56 368 357.12 368 368C370.313 368.026 372.625 368.052 375.008 368.078C377.262 368.117 379.516 368.162 381.77 368.208C383.329 368.236 384.889 368.257 386.448 368.271C388.698 368.293 390.946 368.339 393.195 368.391C393.886 368.392 394.577 368.393 395.289 368.394C400.281 368.543 403.144 369.882 407 373C410.547 377.966 410.84 383.099 410 389C408.733 392.65 406.941 395.278 403.837 397.659C400.296 399.333 397.134 399.476 393.293 399.512C392.568 399.53 391.842 399.548 391.095 399.566C388.792 399.62 386.49 399.654 384.187 399.688C382.62 399.721 381.053 399.755 379.486 399.791C375.657 399.878 371.83 399.938 368 400C368 410.56 368 421.12 368 432C389.12 432 410.24 432 432 432C432.066 396.16 432.121 360.32 432.153 324.48C432.157 320.25 432.161 316.021 432.165 311.791C432.166 310.949 432.166 310.107 432.167 309.24C432.18 295.599 432.204 281.958 432.231 268.317C432.259 254.324 432.276 240.331 432.282 226.338C432.286 217.701 432.299 209.064 432.324 200.427C432.34 194.507 432.344 188.587 432.34 182.668C432.339 179.25 432.342 175.833 432.358 172.416C432.372 168.713 432.369 165.01 432.361 161.307C432.369 160.224 432.378 159.142 432.387 158.026C432.422 150.993 432.422 150.993 429 145C426.341 143.67 424.334 143.88 421.357 143.886C420.176 143.887 418.995 143.887 417.778 143.887C415.858 143.894 415.858 143.894 413.898 143.902C411.938 143.904 411.938 143.904 409.939 143.907C406.463 143.91 402.988 143.92 399.512 143.931C395.967 143.942 392.421 143.946 388.875 143.951C381.917 143.961 374.958 143.981 368 144ZM240 390C240 403.86 240 417.72 240 432C250.56 432 261.12 432 272 432C272 418.14 272 404.28 272 390C261.44 390 250.88 390 240 390Z"/>
<path d="M262 112C266.635 114.152 270.013 117.238 272 122C272.478 125.806 272.378 129.546 272.25 133.375C272.232 134.397 272.214 135.419 272.195 136.473C272.148 138.983 272.083 141.491 272 144C272.635 143.979 273.27 143.958 273.924 143.936C276.824 143.853 279.724 143.801 282.625 143.75C283.624 143.716 284.623 143.683 285.652 143.648C291.812 143.567 295.316 143.887 300 148C303.628 151.819 304.31 154.883 304.5 160C304.31 165.117 303.628 168.181 300 172C294.534 176.8 289.685 176.487 282.625 176.25C281.603 176.232 280.581 176.214 279.527 176.195C277.017 176.148 274.509 176.083 272 176C272.031 176.952 272.031 176.952 272.063 177.924C272.147 180.824 272.199 183.724 272.25 186.625C272.284 187.624 272.317 188.623 272.352 189.652C272.433 195.812 272.113 199.316 268 204C264.181 207.628 261.117 208.31 256 208.5C250.883 208.31 247.819 207.628 244 204C239.2 198.534 239.513 193.685 239.75 186.625C239.768 185.603 239.786 184.58 239.805 183.527C239.852 181.017 239.917 178.509 240 176C239.047 176.031 239.047 176.031 238.076 176.063C235.176 176.147 232.276 176.199 229.375 176.25C228.376 176.283 227.377 176.317 226.348 176.351C220.188 176.433 216.684 176.113 212 172C208.372 168.181 207.69 165.117 207.5 160C207.69 154.883 208.372 151.819 212 148C217.466 143.2 222.315 143.513 229.375 143.75C230.397 143.768 231.419 143.786 232.473 143.805C234.983 143.852 237.491 143.917 240 144C239.979 143.365 239.958 142.73 239.937 142.076C239.853 139.176 239.801 136.276 239.75 133.375C239.716 132.376 239.683 131.377 239.648 130.348C239.567 124.188 239.887 120.684 244 116C249.271 110.992 255.108 111.072 262 112Z"/>
</svg>
