<svg width="512" height="512" viewBox="0 0 512 512" fill="currentColor" xmlns="http://www.w3.org/2000/svg">
<path d="M440.217 193.43C447.596 200.339 454.73 207.506 461.885 214.645C464.647 217.397 467.419 220.138 470.191 222.879C471.954 224.635 473.716 226.391 475.477 228.148C476.304 228.963 477.131 229.778 477.983 230.617C478.745 231.382 479.506 232.147 480.292 232.935C481.296 233.935 481.296 233.935 482.322 234.954C485.616 238.97 486.226 242.708 486.363 247.84C485.463 253.191 482.35 257.025 478.611 260.761C477.726 261.652 476.841 262.544 475.929 263.462C474.963 264.419 473.997 265.376 473.031 266.332C472.03 267.333 471.029 268.334 470.029 269.336C467.932 271.432 465.83 273.524 463.725 275.612C461.055 278.259 458.396 280.917 455.741 283.579C453.674 285.65 451.601 287.715 449.527 289.779C448.547 290.756 447.568 291.734 446.59 292.713C440.051 299.254 433.261 305.272 426 311C424.924 311.853 424.924 311.853 423.826 312.724C383.352 344.64 333.265 364.208 282 369C280.835 369.111 279.669 369.222 278.469 369.336C213.514 374.561 148.003 356.403 95.3125 318.125C94.6008 317.609 93.8891 317.092 93.1558 316.561C78.1077 305.347 64.8318 292.182 51.6067 278.922C49.1486 276.458 46.6791 274.006 44.2066 271.557C41.8222 269.19 39.4488 266.813 37.0742 264.438C36.191 263.564 35.3078 262.69 34.3979 261.789C33.5855 260.971 32.7732 260.152 31.9363 259.309C31.2221 258.595 30.5079 257.881 29.772 257.146C26.4132 253.078 25.7761 249.38 25.6367 244.16C26.541 238.783 29.6839 234.939 33.4329 231.179C34.3284 230.274 35.224 229.369 36.1467 228.437C37.1247 227.464 38.1032 226.492 39.082 225.52C40.0984 224.501 41.1143 223.482 42.1298 222.463C44.261 220.327 46.3975 218.197 48.5378 216.071C51.2431 213.383 53.9348 210.681 56.6229 207.976C67.2314 197.309 77.7602 186.816 90 178C91.3181 176.984 92.6338 175.966 93.9453 174.941C117.413 157.384 143.954 143.572 172 135C173.271 134.605 173.271 134.605 174.567 134.201C192.401 128.701 210.427 124.869 229 123C230.052 122.888 231.104 122.776 232.188 122.66C307.911 115.886 384.459 141.874 440.217 193.43ZM107 207C106.015 207.782 105.03 208.565 104.016 209.371C90.7316 220.158 78.9951 232.829 67 245C68.6485 249.225 71.7791 252.067 74.9336 255.199C75.5262 255.794 76.1187 256.388 76.7292 257.001C77.9869 258.26 79.247 259.516 80.5095 260.77C82.4064 262.657 84.2926 264.553 86.1777 266.451C93.1389 273.421 100.19 279.977 108 286C108.726 286.565 109.452 287.13 110.2 287.712C145.366 314.655 187.899 331.522 232 336C232.999 336.111 233.998 336.222 235.027 336.336C297.486 342.284 361.101 321.502 409.277 281.775C421.928 271.036 433.361 258.811 445 247C443.352 242.775 440.221 239.933 437.066 236.801C436.474 236.206 435.881 235.612 435.271 234.999C434.013 233.74 432.753 232.484 431.49 231.23C429.594 229.343 427.707 227.447 425.822 225.549C418.861 218.579 411.81 212.023 404 206C403.274 205.435 402.548 204.87 401.8 204.288C323.577 144.357 214.03 138.791 107 207Z"/>
<path d="M309 185C309.968 185.772 310.936 186.544 311.934 187.34C321.534 195.354 327.578 206.51 332 218C332.434 219.113 332.869 220.225 333.316 221.371C339.833 241.374 337.251 263.733 328.188 282.375C325.058 288.455 321.631 293.935 317 299C316.2 299.892 315.399 300.784 314.574 301.703C301.17 315.903 282.405 325.623 262.668 326.434C260.508 326.457 258.348 326.458 256.188 326.438C255.048 326.429 253.908 326.42 252.733 326.41C234.434 326.035 216.637 319.468 203 307C202.108 306.2 201.216 305.399 200.297 304.574C186.098 291.17 176.377 272.405 175.566 252.668C175.543 250.508 175.542 248.348 175.563 246.188C175.572 245.048 175.581 243.908 175.59 242.733C175.971 224.107 182.727 207.066 195 193C195.775 192.031 196.55 191.061 197.348 190.063C209.936 174.989 229.934 167.331 248.938 165.25C271.021 163.888 292.278 170.41 309 185ZM222 212.188C211.639 223.281 208.353 235.721 208.691 250.481C209.333 263.24 215.933 273.765 225.063 282.406C237.028 292.249 249.926 294.465 265 293C277.399 290.66 288.347 282.893 295.656 272.688C303.342 260.632 305.06 247.465 302.309 233.488C298.793 222.001 291.345 211.424 280.965 205.172C260.561 194.755 239.202 196.058 222 212.188Z"/>
</svg>
