<svg width="512" height="512" viewBox="0 0 512 512" fill="currentColor" xmlns="http://www.w3.org/2000/svg">
<path d="M454 48.0002C458.885 50.2681 461.732 53.1155 464 58.0002C464.846 64.2817 464.966 69.03 461.271 74.3544C458.923 77.3952 456.214 80.059 453.491 82.7612C452.508 83.7483 452.508 83.7483 451.505 84.7553C449.306 86.9624 447.099 89.1623 444.892 91.3623C443.299 92.9578 441.706 94.5538 440.113 96.1501C435.734 100.538 431.348 104.92 426.961 109.301C422.717 113.54 418.479 117.784 414.24 122.028C405.035 131.243 395.825 140.453 386.612 149.66C378.551 157.716 370.491 165.774 362.434 173.834C361.633 174.635 361.633 174.635 360.815 175.453C358.646 177.623 356.478 179.792 354.309 181.961C333.963 202.313 313.612 222.659 293.257 243.003C275.166 261.084 257.081 279.171 238.999 297.262C218.69 317.582 198.378 337.898 178.06 358.209C175.896 360.374 173.731 362.538 171.566 364.702C171.033 365.235 170.5 365.768 169.951 366.317C161.894 374.371 153.839 382.428 145.786 390.487C136.633 399.646 127.476 408.801 118.314 417.952C113.637 422.624 108.961 427.298 104.29 431.976C100.018 436.253 95.7424 440.526 91.4626 444.795C89.9104 446.345 88.36 447.897 86.8113 449.45C84.7152 451.552 82.6131 453.648 80.5093 455.743C79.9016 456.355 79.294 456.967 78.668 457.598C78.1067 458.154 77.5455 458.711 76.9672 459.284C76.487 459.764 76.0069 460.244 75.5122 460.738C70.9916 464.511 66.6005 464.423 60.914 464.313C55.6126 463.744 53.1602 461.222 49.625 457.5C47.2767 452.442 47.029 447.483 48 442C50.8958 437.077 54.4702 433.247 58.5093 429.239C59.492 428.252 59.492 428.252 60.4945 427.245C62.6943 425.038 64.9012 422.838 67.1081 420.638C68.7013 419.043 70.2941 417.447 71.8864 415.85C76.2662 411.462 80.6522 407.08 85.0392 402.7C89.2825 398.46 93.5212 394.216 97.76 389.972C106.965 380.757 116.175 371.547 125.388 362.34C133.449 354.284 141.509 346.226 149.566 338.167C150.1 337.632 150.635 337.098 151.185 336.547C153.354 334.378 155.522 332.208 157.691 330.039C178.037 309.687 198.388 289.341 218.742 268.998C236.834 250.916 254.919 232.83 273.001 214.738C293.31 194.419 313.622 174.102 333.94 153.791C336.104 151.627 338.269 149.463 340.434 147.299C340.967 146.766 341.5 146.233 342.049 145.684C350.106 137.629 358.16 129.572 366.214 121.514C375.367 112.355 384.524 103.199 393.686 94.0486C398.363 89.3765 403.039 84.7028 407.71 80.0248C411.982 75.7474 416.258 71.4745 420.537 67.2054C422.09 65.6555 423.64 64.1039 425.189 62.5505C427.285 60.4483 429.387 58.3523 431.491 56.2578C432.098 55.6455 432.706 55.0332 433.332 54.4024C433.893 53.8461 434.454 53.2898 435.033 52.7167C435.513 52.2367 435.993 51.7567 436.488 51.2621C441.66 46.9456 447.579 47.3116 454 48.0002Z"/>
<path d="M291 134C291.714 134.075 292.428 134.149 293.163 134.226C301.302 135.105 306.651 136.289 312.312 142.562C315.49 147.151 315.508 151.603 315 157C313.008 162.557 309.962 165.566 304.676 168.125C301.653 169.113 299.717 169.075 296.562 168.75C295.417 168.643 294.271 168.536 293.09 168.426C290.932 168.204 288.775 167.976 286.618 167.747C224.136 161.206 160.971 175.889 111 215C110.103 215.686 109.206 216.371 108.281 217.078C93.7096 228.422 80.9715 241.91 68 255C69.6445 259.182 72.7084 262.014 75.8281 265.129C76.4136 265.718 76.999 266.308 77.6022 266.916C78.8472 268.167 80.0947 269.415 81.3447 270.66C83.2105 272.523 85.0627 274.398 86.9141 276.275C101.591 291.03 118.208 303.738 136.258 314.113C139.75 316.516 142.104 319.208 144 323C144.505 328.53 144.738 333.41 142.375 338.5C138.799 342.264 135.716 344.514 130.688 345.937C114.061 346.219 97.1879 329.865 85 320C84.1371 319.316 83.2741 318.631 82.385 317.927C71.7056 309.207 62.0562 299.396 52.3303 289.646C49.7959 287.106 47.2502 284.577 44.7014 282.051C42.7221 280.087 40.7499 278.115 38.7796 276.142C37.3913 274.754 35.9965 273.373 34.6016 271.993C33.7628 271.148 32.924 270.303 32.0598 269.432C31.3218 268.695 30.5838 267.957 29.8234 267.197C26.4266 263.104 25.7773 259.426 25.6367 254.16C26.541 248.783 29.6839 244.939 33.4329 241.179C34.3284 240.274 35.224 239.369 36.1467 238.436C37.1248 237.464 38.1032 236.491 39.082 235.519C40.0984 234.501 41.1143 233.482 42.1298 232.463C44.261 230.327 46.3975 228.197 48.5378 226.071C51.2431 223.383 53.9348 220.681 56.6229 217.975C67.2304 207.31 77.7554 196.808 90 188C91.376 186.948 92.7501 185.894 94.1211 184.836C102.421 178.624 110.941 173.041 120 168C120.835 167.534 121.671 167.069 122.531 166.589C155.821 148.228 192.094 136.618 230 133C231.069 132.889 232.137 132.778 233.238 132.664C252.5 130.957 271.817 131.868 291 134Z"/>
<path d="M390 167C395.033 169.14 399.495 171.94 404 175C404.58 175.391 405.161 175.781 405.759 176.183C409.923 179.012 413.98 181.971 418 185C418.882 185.664 418.882 185.664 419.782 186.341C435.001 197.87 448.39 211.179 461.885 224.645C464.647 227.397 467.419 230.138 470.191 232.879C471.954 234.635 473.716 236.391 475.477 238.149C476.304 238.963 477.131 239.778 477.983 240.617C478.745 241.382 479.506 242.147 480.292 242.935C481.296 243.935 481.296 243.935 482.322 244.954C485.616 248.97 486.226 252.709 486.363 257.84C485.459 263.217 482.316 267.061 478.567 270.821C477.672 271.726 476.776 272.631 475.853 273.564C474.875 274.536 473.897 275.509 472.918 276.481C471.902 277.499 470.886 278.518 469.87 279.537C467.739 281.673 465.603 283.803 463.462 285.929C460.757 288.618 458.065 291.319 455.377 294.025C444.77 304.69 434.245 315.192 422 324C420.624 325.052 419.25 326.106 417.879 327.164C361.367 369.458 290.578 385.734 221 378C220.286 377.925 219.572 377.851 218.837 377.774C210.692 376.894 205.289 375.734 199.688 369.375C196.359 364.691 196.524 360.628 197 355C198.958 349.435 202.042 346.435 207.32 343.875C210.359 342.883 212.329 342.926 215.5 343.25C216.647 343.357 217.795 343.464 218.977 343.574C221.08 343.793 223.182 344.02 225.284 344.253C289.861 351.36 353.92 334.876 405.04 294.123C418.959 282.781 431.38 269.737 444 257C442.356 252.818 439.292 249.986 436.172 246.871C435.586 246.282 435.001 245.692 434.398 245.084C433.153 243.834 431.905 242.585 430.655 241.34C428.79 239.477 426.937 237.602 425.086 235.725C414.832 225.416 403.89 216.37 391.813 208.25C390.818 207.571 390.818 207.571 389.804 206.879C385.039 203.644 380.188 200.571 375.234 197.633C372.048 195.304 369.764 192.529 368 189C367.495 183.47 367.262 178.59 369.625 173.5C375.787 167.014 381.192 165.329 390 167Z"/>
<path d="M326 240C330.967 242.306 333.384 245.243 336 250C336.569 252.996 336.571 255.895 336.5 258.937C336.48 260.195 336.48 260.195 336.459 261.478C335.882 279.121 328.492 295.729 317 309C316.105 310.189 316.105 310.189 315.191 311.402C303.606 325.136 284.363 334.579 266.587 336.223C264.035 336.379 261.494 336.461 258.938 336.5C258.14 336.518 257.342 336.537 256.521 336.556C251.22 336.498 248.218 335.461 244 332C240.372 328.181 239.69 325.117 239.5 320C239.69 314.883 240.372 311.819 244 308C248.981 304.003 253.116 303.209 259.25 302.5C273.683 300.493 283.932 295.547 293.434 284.172C300.179 274.819 302.156 264.911 303.242 253.621C304.329 248.429 306.698 245.237 310.5 241.625C315.665 239.227 320.4 239.246 326 240Z"/>
<path d="M253.063 175.5C253.86 175.481 254.658 175.463 255.48 175.443C260.78 175.501 263.782 176.539 268 180C271.628 183.819 272.31 186.883 272.5 192C272.31 197.117 271.628 200.18 268 204C263.019 207.996 258.884 208.79 252.75 209.5C238.317 211.506 228.068 216.452 218.566 227.828C211.821 237.181 209.844 247.088 208.758 258.379C207.671 263.571 205.302 266.763 201.5 270.375C196.335 272.773 191.6 272.754 186 272C181.033 269.693 178.616 266.757 176 262C175.431 259.004 175.429 256.105 175.5 253.062C175.514 252.224 175.527 251.386 175.541 250.522C176.118 232.879 183.508 216.27 195 203C195.597 202.207 196.194 201.414 196.809 200.597C210.42 184.463 232.352 175.817 253.063 175.5Z"/>
</svg>
