<svg width="512" height="512" viewBox="0 0 512 512" fill="currentColor" xmlns="http://www.w3.org/2000/svg">
<path d="M253.311 28.8148C255.665 28.8126 258.019 28.7944 260.373 28.7755C288.249 28.6669 288.248 28.6669 296.578 36.3907C300.286 41.0851 301.307 47.0631 302.75 52.7501C303.348 55.016 303.946 57.2817 304.547 59.5469C304.803 60.5456 305.059 61.5443 305.323 62.5733C305.912 64.9835 305.912 64.9835 307 67.0001C310.25 68.0531 313.511 68.932 316.817 69.7864C320.95 70.9162 324.521 72.1666 328.207 74.3751C334.221 77.9258 334.221 77.9258 341 79.0001C346.887 76.6674 351.628 72.6252 356.441 68.6016C361.555 64.3745 366.221 61.5677 373.019 62.0391C377.484 62.8513 380.939 64.9006 384.687 67.3751C385.377 67.8184 386.066 68.2618 386.776 68.7186C393.678 73.2624 399.862 78.4873 406 84.0001C407.307 85.1428 407.307 85.1428 408.641 86.3087C411.129 88.5036 413.569 90.7412 416 93.0001C417.464 94.3304 417.464 94.3304 418.957 95.6876C424.452 100.802 429.195 105.268 430 113C429.252 121.282 425.808 128.042 422.014 135.295C419.718 139.743 419.718 139.743 418.937 144.602C420.512 148.157 422.548 151.323 424.687 154.563C428.527 160.499 431.837 166.387 434.746 172.84C435.87 175.324 435.87 175.324 439 176C440.677 176.18 442.36 176.318 444.043 176.43C445.035 176.503 446.027 176.577 447.049 176.652C449.121 176.799 451.194 176.94 453.268 177.074C460.186 177.601 466.858 178.207 472.25 183C480.807 197.67 482.97 216.734 484.875 233.313C485.007 234.439 485.139 235.565 485.276 236.725C486.052 244.143 486.754 251.351 483.437 258.25C478.239 264.115 471.136 266.987 464.187 270.313C463.434 270.675 462.68 271.037 461.904 271.41C461.186 271.745 460.469 272.08 459.73 272.426C459.085 272.729 458.439 273.033 457.774 273.345C456 274 456 274 453 274C452.974 274.862 452.948 275.725 452.922 276.613C452.524 285.186 451.306 293.217 449.284 301.564C449.105 302.329 448.926 303.094 448.742 303.883C448.492 304.894 448.492 304.894 448.238 305.926C447.931 308.604 448.174 310.425 449 313C450.836 315.353 450.836 315.353 453.219 317.539C454.068 318.367 454.918 319.194 455.793 320.047C457.133 321.323 457.133 321.323 458.5 322.625C460.265 324.321 462.025 326.021 463.781 327.727C464.566 328.475 465.35 329.224 466.158 329.995C469.504 333.638 469.586 337.785 469.523 342.535C466.863 360.144 453.591 378.093 443.687 392.438C443.208 393.141 442.729 393.845 442.235 394.571C438.415 399.953 434.606 403.779 427.859 404.938C422.034 405.358 416.781 403.656 411.25 402C409.237 401.407 407.222 400.823 405.203 400.25C404.323 399.987 403.443 399.724 402.536 399.453C399.688 398.944 397.766 399.201 395 400C393.408 401.221 393.408 401.221 392.062 402.875C388.596 406.572 384.804 409.648 380.812 412.75C380.206 413.222 379.6 413.693 378.975 414.179C377.826 415.068 376.676 415.953 375.522 416.834C374.237 417.818 372.966 418.821 371.699 419.828C370 421 370 421 368 421C368.33 421.66 368.66 422.32 369 423C369.583 427.358 369.893 431.743 370.25 436.125C370.424 437.943 370.424 437.943 370.602 439.797C371.16 446.72 371.428 451.854 368 458C363.848 462.243 359.154 464.745 353.812 467.25C353.011 467.628 352.209 468.007 351.383 468.397C335.625 475.575 314.696 485.072 297 483C290.142 480.042 284.703 472.515 281.502 465.908C278.475 459.955 278.475 459.955 273.123 456.227C267.6 454.867 262.03 454.892 256.375 455C255.516 454.999 254.657 454.999 253.771 454.998C241.599 455.073 241.599 455.073 231.602 461.324C228.461 465.486 226.265 469.952 224.187 474.716C222.108 478.716 219.017 480.992 215 483C196.501 486.064 173.345 474.034 156.812 466.5C156.01 466.145 155.207 465.789 154.38 465.423C148.3 462.569 144.483 459.623 141.857 453.208C140.929 449.734 140.918 447.152 141.207 443.578C141.299 442.388 141.391 441.199 141.486 439.973C141.594 438.744 141.702 437.516 141.812 436.25C141.908 435.006 142.005 433.762 142.103 432.481C142.847 423.305 142.847 423.305 144 421C142.958 420.666 142.958 420.666 141.894 420.324C138.321 418.689 135.611 416.382 132.687 413.813C132.119 413.322 131.55 412.83 130.964 412.325C129.304 410.889 127.651 409.445 126 408C125.157 407.27 124.314 406.541 123.445 405.789C120.899 403.578 118.385 401.385 116 399C109.112 399.411 102.726 401.356 96.1542 403.359C89.9208 405.124 84.1949 405.894 78.1206 403.152C72.7323 399.752 69.564 394.584 66.1875 389.313C65.2806 387.921 65.2806 387.921 64.3554 386.502C58.8102 377.897 53.6444 369.123 48.9999 360C48.5045 359.031 48.5045 359.031 47.999 358.043C44.2867 350.626 41.2389 343.396 42.9999 335C44.9639 331.287 47.1677 328.672 50.2656 325.856C51.0725 325.096 51.8795 324.336 52.7109 323.553C54.4062 321.974 56.1147 320.408 57.8359 318.857C62.1648 315.015 62.1648 315.015 64.375 309.891C64.1333 307.804 63.6559 305.993 63 304C62.7628 302.833 62.5256 301.667 62.2812 300.465C62.0234 299.301 61.7656 298.137 61.5 296.938C59.9219 289.286 59.3209 281.803 59 274C57.8656 273.67 56.7312 273.34 55.5624 273C50.6598 271.35 45.9577 269.32 41.2499 267.188C40.5172 266.869 39.7844 266.549 39.0295 266.221C33.0063 263.432 29.6977 260.361 26.6523 254.332C25.6808 249.37 26.1162 244.702 26.5624 239.688C26.6554 238.595 26.7484 237.502 26.8442 236.376C27.9798 224.397 30.2729 212.708 32.9999 201C33.1782 200.224 33.3564 199.448 33.54 198.648C36.6367 185.51 36.6367 185.51 41.9999 181C48.5608 177.992 54.6572 177.338 61.8125 176.875C63.8609 176.73 65.909 176.581 67.957 176.43C68.8539 176.37 69.7509 176.311 70.675 176.25C73.1543 176.067 73.1543 176.067 76 175C77.2254 173.268 77.2254 173.268 78.2343 171.098C78.6406 170.294 79.0469 169.491 79.4655 168.663C79.8894 167.805 80.3132 166.947 80.75 166.063C83.991 159.637 87.2448 153.731 91.9179 148.203C93.6014 144.775 92.9187 142.675 91.9999 139C90.6575 135.751 89.0973 132.63 87.5 129.5C80.865 116.497 80.865 116.497 82.9062 108.625C85.0568 102.884 89.1192 99.1433 93.4999 95.0001C94.7205 93.8167 94.7205 93.8167 95.9658 92.6094C127.018 62.7798 127.018 62.7798 140.849 61.9476C148.157 62.1259 154.135 66.8986 159.75 71.0626C161.222 72.1392 162.696 73.2135 164.172 74.2852C164.812 74.7584 165.453 75.2316 166.112 75.7191C168.044 77.0297 169.828 78.1379 172 79.0001C175.059 78.0881 175.059 78.0881 178.312 76.4376C194.952 68.7574 194.952 68.7574 203.309 67.711C205.275 67.1091 205.275 67.1091 206.09 64.6212C206.509 63.0453 206.509 63.0453 206.937 61.4376C207.269 60.2697 207.6 59.1018 207.941 57.8985C208.296 56.5994 208.648 55.2999 209 54.0001C213.86 36.0931 213.86 36.0931 220 32.0001C222.853 31.0014 225.068 30.4021 228 30.0001C228.654 29.9079 229.307 29.8157 229.981 29.7208C237.742 28.8235 245.509 28.814 253.311 28.8148ZM242 62.0001C240.371 66.126 238.894 70.1662 237.824 74.4727C237.541 75.6048 237.541 75.6048 237.252 76.7598C236.875 78.296 236.511 79.8352 236.158 81.377C234.721 86.9959 232.813 91.5252 228 95.0001C223.692 96.7783 219.275 97.8506 214.75 98.9376C202.047 102.258 190.426 106.417 178.883 112.695C173.946 114.93 169.3 114.808 164 114C160.283 112.493 157.238 110.347 154 108C152.832 107.196 151.661 106.396 150.488 105.598C147.306 103.426 144.149 101.221 141 99.0001C129.459 107.367 129.459 107.367 119 117C120.275 121.276 121.994 125.066 124.022 129.014C127.692 136.248 130.891 142.712 129 151C127.774 153.795 126.771 155.62 125 158C116.497 169.84 108.634 182.025 103.508 195.735C101.685 200.339 99.3371 203.59 94.9999 206C88.6184 208.263 81.6357 208.556 74.9375 209.125C73.9765 209.211 73.0155 209.298 72.0253 209.387C69.684 209.596 67.3422 209.801 65 210C64.3472 212.957 63.7027 215.915 63.0625 218.875C62.7888 220.109 62.7888 220.109 62.5097 221.367C61.2508 227.227 60.4769 233.027 60 239C60.635 239.277 61.27 239.554 61.9243 239.839C64.8291 241.111 67.7269 242.399 70.625 243.688C71.624 244.123 72.623 244.558 73.6523 245.006C87.2019 251.063 87.2019 251.063 90 258C90.423 260.691 90.423 260.691 90.6757 263.777C90.779 264.922 90.8823 266.066 90.9887 267.244C91.0955 268.463 91.2024 269.682 91.3124 270.938C92.5934 284.26 94.7582 297.275 98.9999 310C99.1694 311.745 99.2659 313.498 99.3124 315.25C99.3685 316.619 99.3685 316.619 99.4257 318.016C98.2837 326.021 92.2962 331.082 86.75 336.438C86.0049 337.169 85.2598 337.901 84.4921 338.654C82.6681 340.443 80.8374 342.225 79 344C85.2371 356.937 85.2371 356.937 92.9999 369C97.7519 368.113 102.463 367.162 107.133 365.906C108.227 365.622 108.227 365.622 109.344 365.331C110.79 364.952 112.233 364.558 113.67 364.146C119.112 362.746 123.798 362.663 129 365C132.009 367.307 134.468 370.001 137 372.813C147.214 383.589 158.624 392.428 171.117 400.438C173.566 402.469 174.705 404.073 176 407C176.241 409.919 176.331 412.593 176.25 415.5C176.234 416.684 176.234 416.684 176.217 417.892C176.092 424.618 175.662 431.306 175 438C188.565 444.831 188.565 444.831 203 448C204.435 446.273 204.435 446.273 205.863 444.02C206.421 443.185 206.978 442.35 207.553 441.49C208.424 440.165 208.424 440.165 209.312 438.813C218.254 425.233 218.254 425.233 223.141 423.039C223.837 422.902 224.533 422.766 225.25 422.625C225.936 422.473 226.622 422.321 227.328 422.164C230.329 421.98 233.13 422.378 236.105 422.747C241.937 423.257 247.805 423.147 253.656 423.13C255.929 423.125 258.202 423.13 260.475 423.137C267.345 423.139 274.127 423.098 280.942 422.105C286.095 421.843 290.526 423.733 294.367 427.035C297.777 430.875 300.519 435.013 303.312 439.313C303.862 440.149 304.412 440.984 304.978 441.846C306.324 443.894 307.665 445.945 309 448C318.624 445.648 328.117 442.441 337 438C336.928 437.27 336.856 436.541 336.781 435.789C336.182 429.053 335.821 422.323 335.687 415.563C335.643 414.428 335.643 414.428 335.598 413.27C335.542 408.031 336.43 405.073 340 401C342.344 399.1 344.829 397.49 347.375 395.875C356.839 389.608 365.618 382.671 373.445 374.422C374.011 373.83 374.577 373.238 375.159 372.628C376.224 371.499 377.273 370.353 378.299 369.188C382.289 364.925 386.136 363.229 392 363C395.667 363.44 399.135 364.322 402.687 365.313C404.503 365.789 406.32 366.265 408.137 366.738C408.976 366.962 409.816 367.186 410.681 367.417C413.433 368.109 416.19 368.604 419 369C424.418 360.915 429.247 353.021 433 344C432.501 343.511 432.001 343.022 431.487 342.519C429.215 340.289 426.951 338.051 424.687 335.813C423.902 335.044 423.116 334.275 422.307 333.482C421.549 332.732 420.792 331.981 420.012 331.207C419.315 330.521 418.619 329.835 417.901 329.128C413.376 324.063 412.42 320.314 412.574 313.672C413.172 308.516 414.58 303.693 416.001 298.712C419.467 286.234 420.755 273.264 421.666 260.373C422.18 256.715 423.512 254.685 426 252C431.442 248.651 437.153 245.951 442.937 243.25C443.812 242.839 444.687 242.428 445.588 242.004C447.724 241 449.861 239.999 452 239C451.549 235.666 451.088 232.333 450.625 229C450.435 227.598 450.435 227.598 450.242 226.168C449.472 220.662 448.455 215.367 447 210C446.183 209.93 445.366 209.86 444.525 209.788C440.806 209.46 437.091 209.105 433.375 208.75C432.09 208.64 430.805 208.531 429.48 208.418C428.236 208.296 426.993 208.173 425.711 208.047C424.569 207.942 423.428 207.837 422.251 207.73C417.757 206.721 414.514 204.589 411.348 201.266C409.351 197.91 407.937 194.35 406.437 190.75C401.024 178.189 393.764 167 385.496 156.137C382.087 151.269 382.329 145.707 383 140C384.341 136.144 386.174 132.642 388.125 129.063C389.1 127.249 390.062 125.427 391.008 123.598C391.437 122.809 391.867 122.02 392.309 121.207C393.24 119.002 393.24 119.002 392.254 116.845C387.352 109.632 378.911 104.191 372 99.0001C365.729 102.221 360.106 105.985 354.48 110.231C349.523 113.767 345.822 114.726 339.723 114.645C334.112 113.673 329.471 111.188 324.423 108.635C318.967 105.886 313.559 103.581 307.75 101.688C306.644 101.326 306.644 101.326 305.516 100.956C301.953 99.8271 298.393 98.8286 294.75 97.9922C294.075 97.8328 293.4 97.6734 292.704 97.5091C290.887 97.0939 289.061 96.7191 287.234 96.3477C282.749 94.479 280.443 92.1846 278 88.0001C276.387 83.7867 275.269 79.501 274.187 75.1251C273.6 72.8562 273.01 70.588 272.418 68.3204C272.168 67.3228 271.918 66.3252 271.661 65.2974C271.217 63.0553 271.217 63.0553 270 62.0001C267.927 61.9124 265.852 61.8931 263.777 61.9024C261.887 61.9072 261.887 61.9072 259.959 61.9122C258.618 61.9205 257.278 61.929 255.937 61.9376C254.593 61.9426 253.249 61.9471 251.904 61.9512C248.603 61.9631 245.301 61.9796 242 62.0001Z"/>
<path d="M318 131C319.033 131.5 320.065 132 321.129 132.516C353.269 148.763 376.839 177.908 388.691 211.613C390.019 215.694 391.06 219.815 392 224C392.239 225 392.239 225 392.483 226.019C397.118 245.992 396.761 268.09 392 288C391.85 288.669 391.699 289.338 391.544 290.027C386.091 313.631 373.652 334.638 357 352C356.131 352.944 355.262 353.887 354.367 354.859C336.854 373.517 312.971 386.54 288 392C286.936 392.239 286.936 392.239 285.85 392.483C265.647 396.826 244.138 396.523 224 392C223.312 391.85 222.625 391.699 221.917 391.544C198.352 386.148 177.315 373.607 160 357C158.585 355.697 158.585 355.697 157.141 354.367C138.417 336.793 125.617 312.996 120 288C119.761 287 119.761 287 119.517 285.98C114.882 266.008 115.239 243.91 120 224C120.15 223.331 120.301 222.662 120.456 221.973C125.906 198.382 138.338 177.341 155 160C155.44 159.528 155.881 159.057 156.334 158.571C196.894 115.205 265.273 104.138 318 131ZM174.624 187.126C155.038 209.728 148.302 238.701 150 268C153.072 295.965 167.95 320.759 189 339C212.129 357.451 241.462 364.915 270.733 361.7C298.316 357.537 323.046 342.783 340.41 320.973C357.565 297.168 365.575 268.94 361.312 239.66C356.457 211.403 340.978 185.493 317.433 168.82C270.995 137.612 212.091 146.232 174.624 187.126Z"/>
<path d="M263.316 165.949C267.298 168.274 270.449 170.541 272 175C272.224 178.682 272.174 182.317 272 186C272.835 185.93 272.835 185.93 273.687 185.859C279.657 185.577 284.13 186.397 289 190C293.169 195.238 294.547 199.323 294 206C292.19 211.272 289.765 214.945 285 218C281.502 219.166 278.306 219.191 274.664 219.246C273.193 219.279 271.721 219.312 270.25 219.346C267.937 219.393 265.624 219.438 263.311 219.477C261.075 219.517 258.838 219.568 256.601 219.621C255.572 219.634 255.572 219.634 254.521 219.647C250.61 219.747 247.463 220.125 244 222C241.549 225.677 241.176 228.729 242 233C244.697 236.521 246.683 238.218 251 239C252.434 239.087 253.872 239.131 255.309 239.141C269.781 239.413 281.095 241.106 291.848 251.684C301.237 261.789 304.632 271.241 304.47 285.009C304.03 296.811 299.515 306.883 290.828 315.039C285.216 319.587 279.391 324 272 324C272.046 324.869 272.093 325.738 272.141 326.633C272.434 336.01 272.434 336.01 270.437 340.563C265.965 345.035 262.349 347.205 256.062 347.563C249.616 347.287 245.337 344.484 241 339.875C239.417 335.323 239.774 330.771 240 326C239.443 326.046 238.886 326.093 238.312 326.141C232.343 326.423 227.87 325.603 223 322C218.831 316.762 217.453 312.677 218 306C219.81 300.728 222.234 297.055 227 294C230.572 292.809 233.869 292.808 237.59 292.754C239.111 292.721 240.633 292.688 242.154 292.654C244.548 292.607 246.942 292.562 249.337 292.523C251.65 292.483 253.964 292.432 256.277 292.379C256.991 292.371 257.705 292.362 258.44 292.353C262.084 292.263 264.976 292.143 268 290C270.451 286.323 270.824 283.271 270 279C267.302 275.477 265.317 273.785 261 273C259.542 272.902 258.082 272.846 256.621 272.824C243.085 272.485 232.513 271.238 222 262C221.394 261.499 220.788 260.997 220.164 260.481C213.676 254.659 208.592 245.775 207.823 236.976C207.394 222.039 208.848 210.734 219 199C224.557 193.697 232.019 188 240 188C239.942 187.143 239.884 186.286 239.824 185.402C239.373 173.964 239.373 173.964 243.527 169.301C249.094 164.384 256.393 163.112 263.316 165.949Z"/>
</svg>
