<svg width="512" height="512" viewBox="0 0 512 512" fill="currentColor" xmlns="http://www.w3.org/2000/svg">
<path d="M127.169 89.6079C130.978 89.6148 134.787 89.6042 138.597 89.596C146.038 89.5827 153.479 89.5855 160.921 89.5942C166.974 89.601 173.027 89.6019 179.08 89.5987C179.945 89.5982 180.81 89.5977 181.7 89.5973C183.457 89.5963 185.215 89.5953 186.972 89.5943C203.411 89.5858 219.85 89.5956 236.289 89.6117C250.365 89.6251 264.441 89.6228 278.517 89.609C294.901 89.5929 311.285 89.5866 327.669 89.5958C329.419 89.5968 331.17 89.5977 332.92 89.5987C333.781 89.5991 334.642 89.5996 335.529 89.6001C341.568 89.6026 347.607 89.5983 353.646 89.5912C361.015 89.5828 368.384 89.5852 375.753 89.6011C379.506 89.6089 383.259 89.6121 387.012 89.6021C416.595 89.5298 440.837 92.6535 463.25 113.688C481.444 132.798 486.486 156.073 486.388 181.637C486.392 183.446 486.398 185.255 486.404 187.063C486.418 191.927 486.413 196.791 486.403 201.654C486.395 206.774 486.402 211.894 486.407 217.015C486.413 225.608 486.405 234.202 486.391 242.796C486.375 252.694 486.38 262.591 486.397 272.488C486.41 281.027 486.412 289.566 486.404 298.105C486.4 303.187 486.399 308.269 486.409 313.351C486.418 318.132 486.411 322.912 486.394 327.692C486.39 329.434 486.391 331.175 486.398 332.916C486.487 358.514 480.168 380.224 462.312 399.25C439.941 420.549 413.298 422.471 383.899 422.392C380.117 422.385 376.335 422.396 372.553 422.404C365.167 422.418 357.781 422.415 350.394 422.406C344.386 422.399 338.377 422.398 332.368 422.402C331.51 422.402 330.651 422.402 329.766 422.403C328.021 422.404 326.276 422.405 324.531 422.406C308.209 422.414 291.888 422.405 275.566 422.388C261.594 422.375 247.622 422.377 233.649 422.391C217.382 422.407 201.114 422.414 184.846 422.404C183.108 422.403 181.37 422.402 179.632 422.402C178.349 422.401 178.349 422.401 177.041 422.4C171.047 422.398 165.053 422.402 159.059 422.409C151.744 422.417 144.428 422.415 137.113 422.399C133.388 422.391 129.664 422.388 125.939 422.398C96.0808 422.472 71.3783 419.548 48.75 398.313C30.5556 379.203 25.5136 355.927 25.6118 330.363C25.6077 328.554 25.6024 326.746 25.5959 324.937C25.5823 320.073 25.5874 315.21 25.597 310.346C25.6047 305.226 25.5975 300.106 25.5928 294.986C25.5874 286.392 25.5945 277.798 25.6089 269.204C25.6252 259.307 25.6199 249.409 25.6034 239.512C25.5897 230.973 25.5879 222.434 25.5957 213.895C25.6004 208.813 25.6011 203.731 25.5911 198.649C25.5823 193.869 25.5886 189.088 25.6058 184.308C25.6097 182.567 25.6087 180.825 25.602 179.084C25.5128 153.486 31.8319 131.777 49.6875 112.75C71.7927 91.704 98.1164 89.5304 127.169 89.6079ZM70 140C62.407 149.905 58.8877 159.962 58.8595 172.392C58.8566 173.127 58.8536 173.862 58.8505 174.619C58.8419 177.077 58.8403 179.535 58.8388 181.993C58.8342 183.757 58.8292 185.522 58.8238 187.286C58.8107 192.078 58.8042 196.869 58.7998 201.661C58.7969 204.658 58.7927 207.655 58.7883 210.652C58.7746 220.039 58.7649 229.425 58.7611 238.812C58.7566 249.629 58.7391 260.446 58.7101 271.263C58.6884 279.635 58.6784 288.007 58.677 296.379C58.676 301.374 58.6702 306.369 58.6522 311.364C58.6357 316.068 58.6336 320.772 58.6424 325.476C58.6431 327.194 58.6388 328.913 58.6289 330.632C58.5344 348.013 61.1612 362.661 73.4765 375.672C82.6724 384.156 93.874 389.115 106.426 389.132C107.509 389.135 108.592 389.139 109.708 389.143C110.892 389.142 112.076 389.141 113.296 389.141C114.558 389.144 115.821 389.147 117.122 389.15C120.623 389.158 124.125 389.159 127.627 389.16C131.405 389.162 135.183 389.17 138.961 389.176C147.222 389.19 155.482 389.196 163.743 389.2C168.903 389.203 174.063 389.207 179.222 389.212C193.514 389.224 207.806 389.234 222.098 389.238C223.012 389.238 223.927 389.238 224.869 389.238C226.244 389.239 226.244 389.239 227.647 389.239C229.504 389.239 231.362 389.24 233.219 389.24C234.601 389.241 234.601 389.241 236.011 389.241C250.935 389.245 265.858 389.262 280.782 389.286C296.11 389.309 311.439 389.322 326.768 389.323C335.372 389.324 343.975 389.33 352.579 389.348C359.907 389.363 367.234 389.368 374.562 389.36C378.298 389.356 382.034 389.357 385.77 389.371C389.827 389.386 393.884 389.378 397.942 389.368C399.113 389.376 400.283 389.384 401.49 389.392C416.304 389.303 428.855 384.763 439.672 374.524C449.274 364.116 453.109 352.498 453.14 338.526C453.143 337.794 453.146 337.062 453.149 336.309C453.158 333.868 453.16 331.427 453.161 328.986C453.166 327.231 453.171 325.476 453.176 323.722C453.189 318.961 453.196 314.2 453.2 309.44C453.203 306.462 453.207 303.483 453.212 300.505C453.225 291.176 453.235 281.847 453.239 272.519C453.243 261.771 453.261 251.023 453.29 240.275C453.312 231.954 453.322 223.632 453.323 215.311C453.324 210.348 453.33 205.384 453.348 200.421C453.364 195.747 453.366 191.074 453.358 186.4C453.357 184.692 453.361 182.985 453.371 181.277C453.466 163.932 450.811 149.309 438.523 136.328C429.328 127.844 418.126 122.885 405.574 122.869C403.95 122.863 403.95 122.863 402.292 122.857C401.108 122.858 399.924 122.859 398.704 122.86C397.442 122.857 396.179 122.854 394.878 122.851C391.376 122.843 387.875 122.841 384.373 122.84C380.595 122.838 376.817 122.831 373.039 122.824C364.778 122.81 356.518 122.804 348.257 122.8C343.097 122.797 337.937 122.793 332.777 122.788C318.486 122.776 304.194 122.766 289.902 122.763C288.988 122.762 288.073 122.762 287.131 122.762C285.756 122.762 285.756 122.762 284.353 122.761C282.496 122.761 280.638 122.76 278.781 122.76C277.859 122.76 276.938 122.759 275.989 122.759C261.065 122.755 246.142 122.738 231.218 122.715C215.889 122.691 200.561 122.678 185.232 122.677C176.628 122.676 168.025 122.671 159.421 122.652C152.093 122.637 144.766 122.632 137.438 122.64C133.702 122.644 129.966 122.643 126.23 122.629C122.173 122.614 118.116 122.622 114.058 122.633C112.887 122.625 111.716 122.616 110.51 122.608C94.4493 122.705 80.9685 128.111 70 140Z"/>
<path d="M211.789 274.898C213.926 276.535 215.968 278.236 218 280C219.011 280.763 220.021 281.526 221.063 282.313C236.645 296.569 244.445 316.202 246.254 336.906C246.517 343.076 245.846 348.013 242 353C236.762 357.169 232.677 358.547 226 358C220.628 356.156 217.196 353.78 214 349C213.277 346.09 213.277 346.09 212.938 342.938C210.694 325.931 205.739 313.444 192.102 302.473C182.048 295.494 169.949 293.777 158 295C145.617 297.367 134.187 303.417 127 314C122.121 322.369 119.249 329.826 118.625 339.5C118.202 344.673 117.146 348.806 114 353C108.762 357.169 104.677 358.547 98 358C92.7276 356.19 89.0548 353.766 86 349C80.911 333.733 87.7618 315.631 94.457 302.043C104.409 283.568 121.153 270.501 141.051 264.004C165.497 257.09 190.752 260.579 211.789 274.898Z"/>
<path d="M196.594 164.008C206.782 172.815 215.039 183.275 217 197C217.762 207.872 217.657 217.952 213 228C212.649 228.784 212.299 229.568 211.938 230.375C205.352 243.546 194.696 251 181.324 256.238C168.092 260.575 153.388 258.445 140.937 252.875C126.855 245.387 118.679 232.879 114 218C113.187 214.313 113.187 214.313 113 211C112.938 210.314 112.876 209.628 112.812 208.922C112.18 196.985 115.841 184.528 123 175C123.563 174.233 124.127 173.466 124.707 172.676C131.81 163.868 141.994 157.627 153 155C153.928 154.773 154.856 154.546 155.812 154.313C170.356 152.887 184.78 154.863 196.594 164.008ZM151.129 192.953C147.46 197.986 145.543 202.731 146 209C147.032 214.806 149.643 218.137 154.184 221.773C159.432 225.318 163.748 225.725 170 225C176.069 223.408 179.724 219.87 182.934 214.57C185.277 208.922 184.773 203.409 182.938 197.688C179.444 192.842 174.926 188.481 169 187C162.145 186.209 155.956 187.915 151.129 192.953Z"/>
<path d="M284.432 313.853C285.561 313.846 286.689 313.839 287.852 313.831C289.71 313.827 289.71 313.827 291.606 313.823C293.563 313.813 293.563 313.813 295.559 313.803C299.887 313.782 304.215 313.772 308.543 313.762C310.035 313.758 311.526 313.754 313.018 313.749C320.027 313.73 327.037 313.716 334.046 313.708C342.129 313.698 350.211 313.672 358.293 313.631C364.545 313.601 370.797 313.586 377.05 313.583C380.781 313.581 384.513 313.572 388.244 313.547C392.412 313.519 396.579 313.523 400.747 313.53C402.59 313.511 402.59 313.511 404.471 313.491C411.462 313.534 416.072 314.2 422 318C426.643 322.881 427.357 326.967 427.281 333.496C426.725 338.45 423.977 341.139 420.375 344.312C416.79 346.86 414.93 347.128 410.561 347.14C409.406 347.146 408.25 347.152 407.06 347.158C405.149 347.159 405.149 347.159 403.2 347.161C401.85 347.166 400.5 347.171 399.15 347.176C395.476 347.189 391.802 347.196 388.129 347.2C385.833 347.203 383.538 347.207 381.243 347.212C374.061 347.225 366.88 347.235 359.698 347.239C351.409 347.243 343.12 347.261 334.83 347.29C328.423 347.312 322.017 347.322 315.61 347.323C311.783 347.324 307.957 347.33 304.13 347.348C300.529 347.364 296.927 347.366 293.325 347.358C291.378 347.356 289.43 347.37 287.482 347.384C276.731 347.333 276.731 347.333 272 344C268.116 339.9 266.259 336.29 265.625 330.688C266.092 326.099 267.328 322.759 270 319C274.78 315.196 278.404 313.879 284.432 313.853Z"/>
<path d="M283.559 260.853C284.716 260.846 285.873 260.839 287.064 260.831C288.334 260.828 289.605 260.826 290.913 260.823C292.264 260.817 293.614 260.81 294.964 260.803C299.399 260.782 303.834 260.772 308.27 260.762C309.797 260.758 311.325 260.754 312.852 260.749C320.028 260.73 327.204 260.716 334.38 260.708C342.661 260.698 350.942 260.672 359.223 260.631C365.626 260.601 372.028 260.586 378.431 260.583C382.254 260.581 386.077 260.572 389.9 260.547C393.498 260.523 397.095 260.519 400.693 260.529C402.638 260.53 404.584 260.511 406.529 260.491C417.183 260.555 417.183 260.555 422 265C426.43 270.028 427.3 272.882 427.215 279.461C426.811 284.23 425.04 287.014 421.625 290.25C417.204 293.197 413.631 294.249 408.327 294.267C407.196 294.276 406.065 294.284 404.9 294.293C403.668 294.292 402.436 294.291 401.167 294.291C399.21 294.301 399.21 294.301 397.213 294.311C393.641 294.329 390.069 294.333 386.496 294.335C384.262 294.336 382.027 294.34 379.793 294.346C371.99 294.364 364.187 294.372 356.384 294.371C349.123 294.369 341.862 294.39 334.601 294.422C328.357 294.448 322.113 294.459 315.869 294.458C312.144 294.457 308.419 294.463 304.694 294.484C300.537 294.507 296.379 294.498 292.221 294.486C290.996 294.497 289.77 294.508 288.507 294.52C281.538 294.469 276.892 293.828 271 290C266.831 284.762 265.453 280.677 266 274C267.81 268.728 270.235 265.055 275 262C278.116 260.961 280.291 260.867 283.559 260.853Z"/>
<path d="M286.934 196.807C287.849 196.799 288.763 196.791 289.705 196.782C292.734 196.757 295.763 196.741 298.793 196.726C299.828 196.721 300.864 196.716 301.93 196.71C307.412 196.684 312.894 196.664 318.375 196.65C322.908 196.636 327.44 196.609 331.973 196.568C337.449 196.518 342.924 196.494 348.401 196.487C350.485 196.48 352.568 196.465 354.652 196.441C357.575 196.409 360.496 196.409 363.419 196.416C364.701 196.392 364.701 196.392 366.009 196.367C372.144 196.43 376.238 198.11 381 202C384.631 206.494 384.502 210.535 384.352 216.121C383.717 221.317 381.212 223.879 377.5 227.312C372.731 230.532 367.827 230.159 362.228 230.177C360.9 230.187 360.9 230.187 359.546 230.197C356.619 230.217 353.692 230.228 350.766 230.238C349.264 230.244 349.264 230.244 347.731 230.251C342.431 230.271 337.131 230.286 331.831 230.295C326.366 230.306 320.901 230.341 315.436 230.38C311.225 230.406 307.015 230.415 302.804 230.418C300.79 230.423 298.776 230.435 296.762 230.453C293.937 230.478 291.114 230.477 288.29 230.47C287.465 230.483 286.64 230.495 285.789 230.509C280.136 230.458 275.685 229.264 271 226C266.831 220.762 265.453 216.677 266 210C267.81 204.728 270.235 201.055 275 198C278.972 196.676 282.791 196.827 286.934 196.807Z"/>
</svg>
