<svg width="512" height="512" viewBox="0 0 512 512" fill="currentColor" xmlns="http://www.w3.org/2000/svg">
<path d="M338.734 292.009C361.537 312.55 375.614 340.526 379 371C379 376.94 379 382.88 379 389C403.42 389 427.84 389 453 389C449.66 368.959 445.642 354.107 430 341C420.88 334.725 412.124 331.143 401.146 330.026C386.205 328.504 386.205 328.504 381.176 322.754C377.991 318.003 377.292 313.707 378 308C380.003 302.325 383.613 298.693 389 296C414.517 294.395 437.509 302.302 456.916 319.183C474.967 335.535 484.777 358.552 486.223 382.732C486.337 386.594 486.371 390.449 486.375 394.312C486.399 395.618 486.424 396.923 486.449 398.268C486.472 405.645 486.151 410.806 482 417C476.581 421.313 472.683 422.125 465.875 422.134C465.141 422.137 464.408 422.139 463.651 422.141C461.173 422.148 458.695 422.148 456.217 422.147C454.43 422.15 452.643 422.154 450.855 422.158C445.929 422.168 441.003 422.172 436.077 422.175C430.77 422.179 425.464 422.188 420.157 422.197C407.333 422.217 394.51 422.227 381.686 422.236C375.651 422.24 369.615 422.245 363.58 422.251C343.523 422.268 323.465 422.282 303.408 422.289C298.202 422.291 292.995 422.293 287.788 422.295C286.494 422.296 285.2 422.296 283.867 422.297C262.895 422.305 241.923 422.33 220.951 422.363C199.431 422.396 177.911 422.414 156.391 422.417C144.304 422.419 132.216 422.428 120.129 422.453C109.837 422.475 99.5442 422.483 89.2517 422.473C83.9991 422.469 78.7467 422.471 73.4941 422.49C68.6857 422.508 63.8776 422.507 59.0691 422.491C57.3295 422.489 55.5899 422.493 53.8503 422.505C37.5349 422.609 37.5349 422.609 30.9999 418C22.4637 407.275 25.0243 387.034 26.4608 373.797C29.6527 351.35 41.4592 330.277 58.8124 315.687C75.0413 303.548 93.4229 296.037 113.75 295.625C114.975 295.586 114.975 295.586 116.226 295.545C121.652 295.531 124.688 296.417 129 300C132.897 304.214 133.835 306.774 134.25 312.375C133.869 317.9 131.976 321.322 128.012 325.086C123.626 328.757 119.428 329.103 113.875 329.562C96.9803 331.492 83.1504 337.711 71.9999 351C69.7232 354.209 67.8017 357.504 65.9999 361C65.6196 361.735 65.2393 362.47 64.8475 363.227C60.995 371.688 60.6073 379.355 58.9999 389C83.4199 389 107.84 389 133 389C133 383.06 133 377.12 133 371C137.448 337.394 153.133 307.785 179.719 286.441C194.85 274.977 211.526 267.377 230 263C230.938 262.774 231.877 262.549 232.844 262.316C270.787 254.922 309.955 266.902 338.734 292.009ZM188.312 323.75C171.886 342.704 166 364.3 166 389C225.4 389 284.8 389 346 389C346.3 376.284 346.3 376.284 344.312 364.25C344.132 363.546 343.952 362.842 343.767 362.116C337.387 338.185 322.546 318.338 301.219 305.781C263.2 284.742 218.156 292.277 188.312 323.75Z"/>
<path d="M309.722 109.825C324.305 122.824 334.747 141.395 336.228 161.015C337.318 183.918 333.423 204.984 318.043 222.773C317.369 223.508 316.695 224.243 316 225C315.336 225.755 314.672 226.511 313.988 227.289C300.497 241.803 281.092 250.422 261.371 251.215C236.861 251.852 216.196 244.761 198.25 227.812C181.098 209.861 175.306 188.854 175.691 164.48C176.429 143.299 186.589 124.62 201.813 110.187C233.046 83.6655 278.292 83.0961 309.722 109.825ZM220 139C210.235 151.718 207.344 164.244 209 180C209.84 184.006 211.11 187.378 213 191C213.447 191.87 213.895 192.74 214.356 193.637C220.771 205.143 229.83 212.069 242.25 216.375C255.025 219.944 266.924 218.411 278.789 212.644C288.181 207.353 294.096 200.539 299 191C299.416 190.202 299.833 189.404 300.262 188.582C304.896 178.093 304.779 164.736 301 154C295.266 141.341 286.184 131.005 273 126C253.718 119.795 233.979 123.748 220 139Z"/>
<path d="M429 175C432.573 177.789 435.817 180.777 439 184C439.562 184.54 440.124 185.08 440.703 185.637C451.111 196.51 455.4 212.453 455.219 227.164C453.914 244.079 447.312 258.68 434.969 270.379C420.8 282.046 405.13 286.229 387 285C382.869 284.325 378.977 283.294 375 282C373.741 281.617 373.741 281.617 372.457 281.226C358.144 276.266 347.379 265.215 340.625 252C340.124 251.021 340.124 251.021 339.612 250.023C333.411 237.2 332.707 220.491 336.625 206.875C337.361 204.895 338.151 202.934 339 201C339.601 199.61 339.601 199.61 340.215 198.191C347.345 183.622 359.443 173.62 374.418 167.824C393.294 161.799 412.334 164.168 429 175ZM373 208C367.841 215.196 366.823 222.305 368 231C370.185 238.786 374.521 244.76 381.562 248.812C388.595 252.579 395.794 253.105 403.5 251C410.239 248.486 415.941 243.431 419.5 237.187C422.592 229.906 422.887 221.938 420.262 214.488C416.913 207.884 411.91 202.448 405.125 199.375C393.148 195.475 381.324 198.436 373 208Z"/>
<path d="M150.699 174.281C164.017 184.23 174.08 197.279 177 214C177.892 224.586 178.172 236.091 174 246C173.536 247.115 173.072 248.23 172.594 249.379C166.088 263.603 155.891 274.344 141.336 280.566C123.965 286.984 106.877 286.745 89.9374 279C74.4266 270.795 64.174 257.735 58.9999 241C54.8446 224.812 57.0982 208.929 64.9804 194.226C68.1107 189.225 71.7844 185.105 75.9999 181C76.6019 180.366 77.2039 179.731 77.8241 179.078C81.8822 175.099 86.3513 172.606 91.4374 170.187C92.3503 169.752 92.3503 169.752 93.2817 169.308C111.562 161.085 134.039 163.305 150.699 174.281ZM96.4687 207.094C91.5357 213.496 89.6994 219.887 89.9999 228C91.5442 236.076 95.6612 242.51 102.019 247.676C107.949 251.641 114.973 253.061 122 252C131.027 249.456 137.277 245.265 142 237C144.733 229.926 145.344 222.514 143.16 215.18C139.839 207.867 134.576 202.333 127.187 199.062C115.949 195.544 104.354 198.316 96.4687 207.094Z"/>
</svg>
